<?xml version="1.0" encoding="UTF-8" standalone="no"?>
<!DOCTYPE svg PUBLIC "-//W3C//DTD SVG 1.1//EN" "http://www.w3.org/Graphics/SVG/1.1/DTD/svg11.dtd">
<svg version="1.1" xmlns="http://www.w3.org/2000/svg" xmlns:xlink="http://www.w3.org/1999/xlink" preserveAspectRatio="xMidYMid meet" viewBox="0 0 640 640" width="640" height="640"><defs><path d="M0 0L640 0L640 641.48L0 641.48L0 0Z" id="hCYrrbihi"></path><path d="M0 549.93L640 549.93L640 640L0 640L0 549.93Z" id="b3LxBJ74"></path><path d="M411.55 555.92C411.55 559.22 380.94 561.9 343.24 561.9C305.54 561.9 274.93 559.22 274.93 555.92C274.93 552.61 305.54 549.93 343.24 549.93C380.94 549.93 411.55 552.61 411.55 555.92Z" id="b4c3Ym7Rp"></path><path d="M236.08 322.34C233.37 319.47 228.84 319.34 225.97 322.06C211.29 335.93 172.45 372.63 157.77 386.5C154.9 389.21 154.77 393.73 157.48 396.6C158.46 397.64 156.5 395.56 157.48 396.6C160.19 399.47 164.72 399.6 167.59 396.89C182.27 383.02 221.11 346.32 235.79 332.45C238.66 329.74 238.79 325.21 236.08 322.34C235.1 321.3 237.06 323.38 236.08 322.34Z" id="a1JXtxRtKF"></path><path d="M376.62 321.6C378.46 317.96 382.91 316.5 386.56 318.34C406.8 328.58 460.93 355.95 481.17 366.19C484.82 368.03 486.28 372.48 484.44 376.13C483.77 377.45 485.1 374.81 484.44 376.13C482.59 379.77 478.14 381.23 474.5 379.39C454.26 369.15 400.13 341.78 379.88 331.54C376.24 329.7 374.78 325.25 376.62 321.6C377.29 320.28 375.95 322.92 376.62 321.6Z" id="cR5JrYlE"></path><path d="M343.24 316.09C343.24 330.81 326.28 342.76 305.39 342.76C284.5 342.76 267.54 330.81 267.54 316.09C267.54 301.37 284.5 289.42 305.39 289.42C326.28 289.42 343.24 301.37 343.24 316.09Z" id="bRwgiBAa8"></path><path d="M267.54 176.69L343.24 176.69L343.24 312.25L267.54 312.25L267.54 176.69Z" id="e304l245U0"></path><path d="M343.24 179.86C343.24 189.77 326.28 197.82 305.39 197.82C284.5 197.82 267.54 189.77 267.54 179.86C267.54 169.95 284.5 161.9 305.39 161.9C326.28 161.9 343.24 169.95 343.24 179.86Z" id="bhwDKSUjK"></path><path d="M271.82 179.82C276.51 182.19 278.38 187.91 276.02 192.6C275.16 194.29 276.87 190.9 276.02 192.6C273.65 197.28 267.93 199.16 263.24 196.79C235.38 182.71 160.29 144.75 132.43 130.67C127.74 128.3 125.86 122.58 128.23 117.9C129.09 116.2 127.37 119.59 128.23 117.9C130.6 113.21 136.32 111.33 141 113.7C168.86 127.78 243.96 165.74 271.82 179.82Z" id="ccTSEfgJ2"></path><path d="M332.3 319.88C332.38 317.71 334.2 316.01 336.38 316.09C346.93 316.47 374.67 317.47 385.23 317.85C387.4 317.93 389.1 319.75 389.02 321.92C388.94 324.09 388.85 326.67 388.77 328.84C388.69 331.01 386.87 332.7 384.7 332.63C374.14 332.25 346.4 331.25 335.84 330.87C333.67 330.79 331.98 328.97 332.05 326.8C332.13 324.63 332.22 322.05 332.3 319.88Z" id="c48BhOPpmc"></path><path d="M485.69 146.43C490.81 145.27 495.9 148.47 497.07 153.59C497.49 155.44 496.65 151.74 497.07 153.59C498.24 158.71 495.03 163.8 489.92 164.97C459.48 171.92 377.45 190.63 347.01 197.58C341.89 198.74 336.8 195.54 335.63 190.42C335.2 188.57 336.05 192.28 335.63 190.42C334.46 185.3 337.66 180.21 342.78 179.04C373.22 172.1 455.25 153.38 485.69 146.43Z" id="a4YDGHiVG1"></path><path d="M416.72 401.5C422.24 401.19 426.96 405.41 427.27 410.92C427.76 419.75 428.69 436.26 429.18 445.09C429.49 450.61 425.27 455.33 419.76 455.64C388.43 457.39 304.42 462.1 273.09 463.86C267.57 464.17 262.85 459.95 262.54 454.44C262.05 445.6 261.12 429.09 260.63 420.26C260.32 414.75 264.54 410.03 270.05 409.72C301.38 407.96 385.39 403.25 416.72 401.5Z" id="b4ORMUq1Ke"></path><path d="M291.84 436.09C292.67 450.79 283.88 463.25 272.24 463.91C260.6 464.56 250.48 453.16 249.66 438.46C248.83 423.76 257.62 411.3 269.26 410.65C280.9 409.99 291.02 421.4 291.84 436.09Z" id="a3LOh1OymK"></path><path d="M440.25 426.89C441.07 441.59 432.29 454.05 420.65 454.71C409.01 455.36 398.89 443.96 398.06 429.26C397.24 414.56 406.02 402.1 417.66 401.44C429.3 400.79 439.43 412.2 440.25 426.89Z" id="c7uDQO9qp"></path><path d="M277.6 319.18C277.48 317.35 275.9 315.97 274.07 316.1C265.21 316.69 241.9 318.25 233.03 318.85C231.21 318.97 229.83 320.55 229.95 322.37C230.1 324.66 230.34 328.23 230.5 330.52C230.62 332.35 232.2 333.73 234.02 333.6C242.89 333.01 266.19 331.45 275.06 330.85C276.89 330.73 278.27 329.15 278.14 327.33C277.99 325.04 277.75 321.47 277.6 319.18Z" id="a5mSApBEhE"></path><path d="M288.33 429.15C288.42 430.7 287.07 432.04 285.32 432.14C283.58 432.24 282.09 431.06 282 429.5C281.91 427.95 283.26 426.61 285.01 426.51C286.75 426.42 288.24 427.6 288.33 429.15Z" id="aFXxYeYN9"></path><path d="M289.16 444.06C289.25 445.61 287.9 446.95 286.16 447.05C284.41 447.14 282.92 445.96 282.84 444.41C282.75 442.86 284.1 441.52 285.84 441.42C287.59 441.32 289.08 442.5 289.16 444.06Z" id="f6vdixjHxw"></path><path d="M304.91 443.17C305 444.73 303.65 446.06 301.91 446.16C300.16 446.26 298.67 445.08 298.59 443.53C298.5 441.98 299.85 440.64 301.59 440.54C303.34 440.44 304.83 441.62 304.91 443.17Z" id="cnp76xpF"></path><path d="M304.08 428.27C304.17 429.82 302.82 431.16 301.07 431.26C299.33 431.35 297.84 430.17 297.75 428.62C297.66 427.07 299.01 425.73 300.76 425.63C302.5 425.53 303.99 426.71 304.08 428.27Z" id="k1etflw6NF"></path><path d="M408.83 437.35C408.92 438.9 407.57 440.24 405.83 440.34C404.08 440.44 402.59 439.25 402.51 437.7C402.42 436.15 403.77 434.81 405.51 434.71C407.26 434.61 408.75 435.8 408.83 437.35Z" id="bZAUWmm0F"></path><path d="M408 422.44C408.09 423.99 406.74 425.33 404.99 425.43C403.25 425.53 401.76 424.35 401.67 422.8C401.58 421.24 402.93 419.9 404.68 419.81C406.42 419.71 407.91 420.89 408 422.44Z" id="bqQBghgck"></path><path d="M392.53 423.31C392.62 424.86 391.27 426.2 389.52 426.3C387.78 426.4 386.29 425.22 386.2 423.66C386.11 422.11 387.46 420.77 389.21 420.67C390.95 420.58 392.44 421.76 392.53 423.31Z" id="demOyyPvP"></path><path d="M393.37 438.21C393.45 439.77 392.11 441.11 390.36 441.2C388.61 441.3 387.12 440.12 387.04 438.57C386.95 437.02 388.3 435.68 390.04 435.58C391.79 435.48 393.28 436.66 393.37 438.21Z" id="a15hM5aqnt"></path><path d="M189.56 396.38C193.24 397.74 195.11 401.83 193.74 405.51C192.92 407.74 192.9 407.78 192.07 410.01C190.71 413.69 186.62 415.57 182.94 414.2C176.35 411.75 163.24 406.89 156.65 404.44C152.97 403.07 151.1 398.98 152.46 395.31C153.29 393.07 153.31 393.04 154.14 390.8C155.5 387.12 159.59 385.25 163.27 386.62C169.86 389.06 182.97 393.93 189.56 396.38Z" id="aH35LrkEf"></path><path d="M152.01 396.46L191.62 411.17L189.53 416.79L149.92 402.09L152.01 396.46Z" id="bM7m8V6t5"></path><path d="M508.19 368.32C512.11 368.6 515.06 371.99 514.79 375.9C514.62 378.28 514.62 378.32 514.45 380.7C514.18 384.61 510.78 387.56 506.87 387.29C499.86 386.8 485.91 385.83 478.9 385.34C474.98 385.06 472.03 381.67 472.3 377.75C472.47 375.38 472.47 375.34 472.64 372.96C472.91 369.05 476.31 366.09 480.22 366.37C487.23 366.86 501.18 367.83 508.19 368.32Z" id="bsSEJCn9q"></path><path d="M472.23 378.85L514.38 381.79L513.96 387.78L471.81 384.84L472.23 378.85Z" id="f1yfkxvYvp"></path><path d="M144.11 119.3C144.11 126.49 138.43 132.32 131.43 132.32C124.44 132.32 118.76 126.49 118.76 119.3C118.76 112.11 124.44 106.27 131.43 106.27C138.43 106.27 144.11 112.11 144.11 119.3Z" id="ejHTi61N"></path><path d="M509.66 153.93C509.66 161.12 503.98 166.95 496.98 166.95C489.99 166.95 484.31 161.12 484.31 153.93C484.31 146.73 489.99 140.9 496.98 140.9C503.98 140.9 509.66 146.73 509.66 153.93Z" id="a3jw04PzMi"></path><path d="M324.93 166.95C324.93 169.74 316.41 172.01 305.92 172.01C295.42 172.01 286.9 169.74 286.9 166.95C286.9 164.17 295.42 161.9 305.92 161.9C316.41 161.9 324.93 164.17 324.93 166.95Z" id="m1TCscKgLq"></path><path d="M286.37 199.23L325.46 199.23L325.46 213.31L286.37 213.31L286.37 199.23Z" id="a4di0Gxhu8"></path><path d="M309.36 141.51C313.8 141.51 317.39 145.11 317.39 149.54C317.39 153.43 317.39 157.06 317.39 160.95C317.39 165.38 313.8 168.98 309.36 168.98C306.38 168.98 305.45 168.98 302.47 168.98C298.03 168.98 294.44 165.38 294.44 160.95C294.44 157.06 294.44 153.43 294.44 149.54C294.44 145.11 298.03 141.51 302.47 141.51C305.45 141.51 306.38 141.51 309.36 141.51Z" id="eew4set5d"></path><path d="M344.95 119.05C344.95 138.3 327.91 153.93 306.92 153.93C285.94 153.93 268.9 138.3 268.9 119.05C268.9 99.8 285.94 84.17 306.92 84.17C327.91 84.17 344.95 99.8 344.95 119.05Z" id="d1WCMNbOz9"></path><path d="M343.77 89.09C343.77 102.11 326.81 112.68 305.92 112.68C285.02 112.68 268.06 102.11 268.06 89.09C268.06 76.06 285.02 65.49 305.92 65.49C326.81 65.49 343.77 76.06 343.77 89.09Z" id="l10urPQ2AY"></path><path d="M268.06 85.21L343.77 85.21L343.77 112.68L268.06 112.68L268.06 85.21Z" id="n3N1mdtgcl"></path><path d="M274.82 84.17L278.15 84.17L278.15 110.23L274.82 110.23L274.82 84.17Z" id="aQQeU6jWT"></path><path d="M285.23 84.17L288.57 84.17L288.57 110.23L285.23 110.23L285.23 84.17Z" id="b5yRAwhJss"></path><path d="M296.34 84.17L299.67 84.17L299.67 110.23L296.34 110.23L296.34 84.17Z" id="e2mhgLaGqp"></path><path d="M308.34 84.17L311.67 84.17L311.67 110.23L308.34 110.23L308.34 84.17Z" id="bICGwkRKB"></path><path d="M320 84.17L323.34 84.17L323.34 110.23L320 110.23L320 84.17Z" id="bQu6fELlu"></path><path d="M332.05 84.17L335.39 84.17L335.39 110.23L332.05 110.23L332.05 84.17Z" id="cDpGVREpC"></path><path d="M330.61 117.01L344.91 117.01L344.91 119.3L330.61 119.3L330.61 117.01Z" id="e21fLK4bTs"></path><path d="M337.76 136.55C337.76 137.72 335.67 138.66 333.1 138.66C330.54 138.66 328.45 137.72 328.45 136.55C328.45 135.38 330.54 134.44 333.1 134.44C335.67 134.44 337.76 135.38 337.76 136.55Z" id="g5UYL5HCBJ"></path><path d="M364.26 136.51C364.26 137.89 357.79 139.01 349.82 139.01C341.86 139.01 335.39 137.89 335.39 136.51C335.39 135.13 341.86 134.01 349.82 134.01C357.79 134.01 364.26 135.13 364.26 136.51Z" id="b1TgT4mze2"></path><path d="M364.26 135.95C364.24 137.32 362.64 138.41 360.69 138.37C358.74 138.32 357.17 137.17 357.2 135.79C357.22 134.41 358.82 133.33 360.77 133.37C362.72 133.42 364.28 134.57 364.26 135.95Z" id="b67thAEd"></path><path d="M364.6 129.23L356.85 122.18L363.9 112.32L357.56 89.09" id="agnquq51t"></path><path d="M369.97 129.23L372.08 119.37L374.9 109.51L372.08 99.65L374.2 89.79" id="a6h4MblthD"></path><path d="M333.72 197.44C333.69 194.87 335.75 192.76 338.32 192.73C339.25 192.72 337.39 192.74 338.32 192.73C340.89 192.7 342.99 194.76 343.02 197.33C343.31 221.07 344.11 287.64 344.4 311.38C344.43 313.95 342.37 316.06 339.8 316.09C338.87 316.1 340.73 316.08 339.8 316.09C337.23 316.12 335.12 314.06 335.09 311.49C334.81 287.75 334.01 221.18 333.72 197.44Z" id="huRbdu5PF"></path><path d="M342.42 312.41C342.88 312.42 343.25 312.79 343.24 313.25C343.2 315.48 343.09 321.33 343.05 323.56C343.04 324.02 342.67 324.38 342.21 324.38C340.35 324.34 335.62 324.26 333.76 324.22C333.31 324.22 332.94 323.84 332.95 323.38C332.99 321.15 333.1 315.3 333.14 313.07C333.15 312.61 333.52 312.25 333.98 312.25C335.84 312.29 340.57 312.37 342.42 312.41Z" id="f6qnPpsUnL"></path><path d="M482.45 160.78C483.97 160.44 485.47 161.39 485.81 162.91C485.93 163.46 485.69 162.36 485.81 162.91C486.15 164.43 485.2 165.93 483.68 166.27C454.63 172.77 370.24 191.63 341.19 198.12C339.67 198.46 338.16 197.5 337.82 195.98C337.7 195.43 337.95 196.53 337.82 195.98C337.49 194.46 338.44 192.96 339.96 192.62C369.01 186.13 453.4 167.27 482.45 160.78Z" id="b1A5dETG0o"></path></defs><g><g><g><use xlink:href="#hCYrrbihi" opacity="1" fill="#33c0cb" fill-opacity="1"></use></g><g><use xlink:href="#b3LxBJ74" opacity="1" fill="#504f50" fill-opacity="1"></use></g><g><g><filter id="shadow536249" x="265.93" y="540.93" width="155.62" height="30.97" filterUnits="userSpaceOnUse" primitiveUnits="userSpaceOnUse"><feFlood></feFlood><feComposite in2="SourceAlpha" operator="in"></feComposite><feGaussianBlur stdDeviation="1"></feGaussianBlur><feOffset dx="1" dy="1" result="afterOffset"></feOffset><feFlood flood-color="#000000" flood-opacity="0.5"></feFlood><feComposite in2="afterOffset" operator="in"></feComposite><feMorphology operator="dilate" radius="1"></feMorphology><feComposite in2="SourceAlpha" operator="out"></feComposite></filter><path d="M411.55 555.92C411.55 559.22 380.94 561.9 343.24 561.9C305.54 561.9 274.93 559.22 274.93 555.92C274.93 552.61 305.54 549.93 343.24 549.93C380.94 549.93 411.55 552.61 411.55 555.92Z" id="a4VbU6QUs" fill="white" fill-opacity="1" filter="url(#shadow536249)"></path></g><use xlink:href="#b4c3Ym7Rp" opacity="1" fill="#3b3b3b" fill-opacity="1"></use></g><g><use xlink:href="#a1JXtxRtKF" opacity="1" fill="#d77b09" fill-opacity="1"></use></g><g><use xlink:href="#cR5JrYlE" opacity="1" fill="#c97409" fill-opacity="1"></use></g><g><use xlink:href="#bRwgiBAa8" opacity="1" fill="#d77b09" fill-opacity="1"></use></g><g><use xlink:href="#e304l245U0" opacity="1" fill="#cfcfcf" fill-opacity="1"></use></g><g><use xlink:href="#bhwDKSUjK" opacity="1" fill="#cfcfcf" fill-opacity="1"></use></g><g><use xlink:href="#ccTSEfgJ2" opacity="1" fill="#cfcfcf" fill-opacity="1"></use></g><g><use xlink:href="#c48BhOPpmc" opacity="1" fill="#c97409" fill-opacity="1"></use></g><g><use xlink:href="#a4YDGHiVG1" opacity="1" fill="#cfcfcf" fill-opacity="1"></use></g><g><g><filter id="shadow1933827" x="251.61" y="392.48" width="187.59" height="81.39" filterUnits="userSpaceOnUse" primitiveUnits="userSpaceOnUse"><feFlood></feFlood><feComposite in2="SourceAlpha" operator="in"></feComposite><feGaussianBlur stdDeviation="1"></feGaussianBlur><feOffset dx="1" dy="1" result="afterOffset"></feOffset><feFlood flood-color="#000000" flood-opacity="0.5"></feFlood><feComposite in2="afterOffset" operator="in"></feComposite><feMorphology operator="dilate" radius="1"></feMorphology><feComposite in2="SourceAlpha" operator="out"></feComposite></filter><path d="M416.72 401.5C422.24 401.19 426.96 405.41 427.27 410.92C427.76 419.75 428.69 436.26 429.18 445.09C429.49 450.61 425.27 455.33 419.76 455.64C388.43 457.39 304.42 462.1 273.09 463.86C267.57 464.17 262.85 459.95 262.54 454.44C262.05 445.6 261.12 429.09 260.63 420.26C260.32 414.75 264.54 410.03 270.05 409.72C301.38 407.96 385.39 403.25 416.72 401.5Z" id="b7VW3EsX5" fill="white" fill-opacity="1" filter="url(#shadow1933827)"></path></g><use xlink:href="#b4ORMUq1Ke" opacity="1" fill="#1a1a1a" fill-opacity="1"></use></g><g><use xlink:href="#a3LOh1OymK" opacity="1" fill="#1a1a1a" fill-opacity="1"></use></g><g><use xlink:href="#c7uDQO9qp" opacity="1" fill="#1a1a1a" fill-opacity="1"></use></g><g><use xlink:href="#a5mSApBEhE" opacity="1" fill="#d77b09" fill-opacity="1"></use></g><g><use xlink:href="#aFXxYeYN9" opacity="1" fill="#6f6f6f" fill-opacity="1"></use></g><g><use xlink:href="#f6vdixjHxw" opacity="1" fill="#6f6f6f" fill-opacity="1"></use></g><g><use xlink:href="#cnp76xpF" opacity="1" fill="#6f6f6f" fill-opacity="1"></use></g><g><use xlink:href="#k1etflw6NF" opacity="1" fill="#6f6f6f" fill-opacity="1"></use></g><g><use xlink:href="#bZAUWmm0F" opacity="1" fill="#6f6f6f" fill-opacity="1"></use></g><g><use xlink:href="#bqQBghgck" opacity="1" fill="#6f6f6f" fill-opacity="1"></use></g><g><use xlink:href="#demOyyPvP" opacity="1" fill="#6f6f6f" fill-opacity="1"></use></g><g><use xlink:href="#a15hM5aqnt" opacity="1" fill="#6f6f6f" fill-opacity="1"></use></g><g><use xlink:href="#aH35LrkEf" opacity="1" fill="#000000" fill-opacity="1"></use></g><g><use xlink:href="#bM7m8V6t5" opacity="1" fill="#8c8b6b" fill-opacity="1"></use></g><g><use xlink:href="#bsSEJCn9q" opacity="1" fill="#000000" fill-opacity="1"></use></g><g><use xlink:href="#f1yfkxvYvp" opacity="1" fill="#8c8b6b" fill-opacity="1"></use></g><g><use xlink:href="#ejHTi61N" opacity="1" fill="#ffd859" fill-opacity="1"></use></g><g><use xlink:href="#a3jw04PzMi" opacity="1" fill="#ffd859" fill-opacity="1"></use></g><g><use xlink:href="#m1TCscKgLq" opacity="1" fill="#ffd859" fill-opacity="1"></use></g><g><use xlink:href="#a4di0Gxhu8" opacity="1" fill="#f30000" fill-opacity="1"></use></g><g><use xlink:href="#eew4set5d" opacity="1" fill="#ffd859" fill-opacity="1"></use></g><g><use xlink:href="#d1WCMNbOz9" opacity="1" fill="#ffd859" fill-opacity="1"></use></g><g><use xlink:href="#l10urPQ2AY" opacity="1" fill="#000000" fill-opacity="1"></use></g><g><use xlink:href="#n3N1mdtgcl" opacity="1" fill="#020202" fill-opacity="1"></use></g><g><use xlink:href="#aQQeU6jWT" opacity="1" fill="#2a2a2a" fill-opacity="1"></use></g><g><use xlink:href="#b5yRAwhJss" opacity="1" fill="#2a2a2a" fill-opacity="1"></use></g><g><use xlink:href="#e2mhgLaGqp" opacity="1" fill="#2a2a2a" fill-opacity="1"></use></g><g><use xlink:href="#bICGwkRKB" opacity="1" fill="#2a2a2a" fill-opacity="1"></use></g><g><use xlink:href="#bQu6fELlu" opacity="1" fill="#2a2a2a" fill-opacity="1"></use></g><g><use xlink:href="#cDpGVREpC" opacity="1" fill="#2a2a2a" fill-opacity="1"></use></g><g><use xlink:href="#e21fLK4bTs" opacity="1" fill="#08240f" fill-opacity="1"></use></g><g><use xlink:href="#g5UYL5HCBJ" opacity="1" fill="#08240f" fill-opacity="1"></use></g><g><use xlink:href="#b1TgT4mze2" opacity="1" fill="#fcfcfc" fill-opacity="1"></use></g><g><use xlink:href="#b67thAEd" opacity="1" fill="#ff0000" fill-opacity="1"></use></g><g><g><use xlink:href="#agnquq51t" opacity="1" fill-opacity="0" stroke="#000000" stroke-width="1" stroke-opacity="1"></use></g></g><g><g><use xlink:href="#a6h4MblthD" opacity="1" fill-opacity="0" stroke="#000000" stroke-width="1" stroke-opacity="1"></use></g></g><g><use xlink:href="#huRbdu5PF" opacity="1" fill="#c2bfbf" fill-opacity="1"></use></g><g><use xlink:href="#f6qnPpsUnL" opacity="1" fill="#c97409" fill-opacity="1"></use></g><g><use xlink:href="#b1A5dETG0o" opacity="1" fill="#c2bfbf" fill-opacity="1"></use></g></g></g></svg>