<?xml version="1.0" encoding="UTF-8" standalone="no"?>
<!DOCTYPE svg PUBLIC "-//W3C//DTD SVG 1.1//EN" "http://www.w3.org/Graphics/SVG/1.1/DTD/svg11.dtd">
<svg version="1.1" xmlns="http://www.w3.org/2000/svg" xmlns:xlink="http://www.w3.org/1999/xlink" preserveAspectRatio="xMidYMid meet" viewBox="0 0 640 640" width="640" height="640"><defs><path d="M0 0L640 0L640 640L0 640L0 0Z" id="aGAL7zJZj"></path><path d="M58.87 81.48L84.19 81.48L84.19 129.29L58.87 129.29L58.87 81.48Z" id="i7vWJJ0t15"></path><path d="M105.99 51.7C105.99 55.97 102.52 59.44 98.25 59.44C93.98 59.44 90.52 55.97 90.52 51.7C90.52 47.44 93.98 43.97 98.25 43.97C102.52 43.97 105.99 47.44 105.99 51.7Z" id="bUq6dK8i0"></path><path d="M122.16 68.39C122.16 95.56 101.58 90.19 73.64 90.19C45.7 90.19 20.9 95.56 20.9 68.39C20.9 41.22 43.59 19.16 71.53 19.16C99.47 19.16 122.16 41.22 122.16 68.39Z" id="dDuM1Sqlv"></path><path d="M79.92 81.75C77.05 84.91 72.15 85.15 68.99 82.28C65.83 79.41 65.59 74.52 68.46 71.36C71.33 68.2 76.22 67.96 79.39 70.83C82.55 73.69 82.79 78.59 79.92 81.75Z" id="c996Xaso5"></path><path d="M108.25 75.28C108.25 79.55 104.79 83.02 100.52 83.02C96.25 83.02 92.78 79.55 92.78 75.28C92.78 71.02 96.25 67.55 100.52 67.55C104.79 67.55 108.25 71.02 108.25 75.28Z" id="c2xhM7rPi"></path><path d="M49.97 73.74C49.97 78.01 46.5 81.48 42.23 81.48C37.96 81.48 34.5 78.01 34.5 73.74C34.5 69.47 37.96 66.01 42.23 66.01C46.5 66.01 49.97 69.47 49.97 73.74Z" id="b2MW038pn"></path><path d="M55.59 47.16C55.59 51.43 52.13 54.89 47.86 54.89C43.59 54.89 40.12 51.43 40.12 47.16C40.12 42.89 43.59 39.42 47.86 39.42C52.13 39.42 55.59 42.89 55.59 47.16Z" id="cbq5j4FWyh"></path><path d="M81.92 31.69C81.92 35.95 78.46 39.42 74.19 39.42C69.92 39.42 66.45 35.95 66.45 31.69C66.45 27.42 69.92 23.95 74.19 23.95C78.46 23.95 81.92 27.42 81.92 31.69Z" id="b2XYdXbm1q"></path><path d="M105.99 47.16C105.99 51.43 102.52 54.89 98.25 54.89C93.98 54.89 90.52 51.43 90.52 47.16C90.52 42.89 93.98 39.42 98.25 39.42C102.52 39.42 105.99 42.89 105.99 47.16Z" id="by9cToLjM"></path><path d="M303.74 81.48L329.06 81.48L329.06 129.29L303.74 129.29L303.74 81.48Z" id="a1naBi4ei"></path><path d="M350.86 51.7C350.86 55.97 347.39 59.44 343.12 59.44C338.85 59.44 335.39 55.97 335.39 51.7C335.39 47.44 338.85 43.97 343.12 43.97C347.39 43.97 350.86 47.44 350.86 51.7Z" id="b8nTnlBFI"></path><path d="M367.03 68.39C367.03 95.56 346.45 90.19 318.51 90.19C290.57 90.19 265.77 95.56 265.77 68.39C265.77 41.22 288.46 19.16 316.4 19.16C344.35 19.16 367.03 41.22 367.03 68.39Z" id="gaD5hPfeG"></path><path d="M324.79 81.75C321.92 84.91 317.02 85.15 313.86 82.28C310.7 79.41 310.46 74.52 313.33 71.36C316.2 68.2 321.09 67.96 324.26 70.83C327.42 73.69 327.66 78.59 324.79 81.75Z" id="b1iIvcRjlf"></path><path d="M353.12 75.28C353.12 79.55 349.66 83.02 345.39 83.02C341.12 83.02 337.65 79.55 337.65 75.28C337.65 71.02 341.12 67.55 345.39 67.55C349.66 67.55 353.12 71.02 353.12 75.28Z" id="aQjYo0fYF"></path><path d="M294.84 73.74C294.84 78.01 291.37 81.48 287.1 81.48C282.84 81.48 279.37 78.01 279.37 73.74C279.37 69.47 282.84 66.01 287.1 66.01C291.37 66.01 294.84 69.47 294.84 73.74Z" id="b5nhkqD4B8"></path><path d="M300.47 47.16C300.47 51.43 297 54.89 292.73 54.89C288.46 54.89 284.99 51.43 284.99 47.16C284.99 42.89 288.46 39.42 292.73 39.42C297 39.42 300.47 42.89 300.47 47.16Z" id="b1n4aUCNLR"></path><path d="M326.79 31.69C326.79 35.95 323.33 39.42 319.06 39.42C314.79 39.42 311.32 35.95 311.32 31.69C311.32 27.42 314.79 23.95 319.06 23.95C323.33 23.95 326.79 27.42 326.79 31.69Z" id="d5HFDismdo"></path><path d="M350.86 47.16C350.86 51.43 347.39 54.89 343.12 54.89C338.85 54.89 335.39 51.43 335.39 47.16C335.39 42.89 338.85 39.42 343.12 39.42C347.39 39.42 350.86 42.89 350.86 47.16Z" id="a6FZLJDyWG"></path><path d="M545.1 81.48L570.41 81.48L570.41 129.29L545.1 129.29L545.1 81.48Z" id="c1NtREHkbf"></path><path d="M592.21 51.7C592.21 55.97 588.75 59.44 584.48 59.44C580.21 59.44 576.74 55.97 576.74 51.7C576.74 47.44 580.21 43.97 584.48 43.97C588.75 43.97 592.21 47.44 592.21 51.7Z" id="a3ySd7NIEe"></path><path d="M608.39 68.39C608.39 95.56 587.81 90.19 559.87 90.19C531.92 90.19 507.13 95.56 507.13 68.39C507.13 41.22 529.81 19.16 557.76 19.16C585.7 19.16 608.39 41.22 608.39 68.39Z" id="b6js07DWtO"></path><path d="M566.14 81.75C563.27 84.91 558.38 85.15 555.22 82.28C552.05 79.41 551.82 74.52 554.68 71.36C557.55 68.2 562.45 67.96 565.61 70.83C568.77 73.69 569.01 78.59 566.14 81.75Z" id="d3Lwh4Uy0T"></path><path d="M594.48 75.28C594.48 79.55 591.01 83.02 586.74 83.02C582.47 83.02 579.01 79.55 579.01 75.28C579.01 71.02 582.47 67.55 586.74 67.55C591.01 67.55 594.48 71.02 594.48 75.28Z" id="b1qRrodI"></path><path d="M536.19 73.74C536.19 78.01 532.73 81.48 528.46 81.48C524.19 81.48 520.72 78.01 520.72 73.74C520.72 69.47 524.19 66.01 528.46 66.01C532.73 66.01 536.19 69.47 536.19 73.74Z" id="c50FUN2oLt"></path><path d="M541.82 47.16C541.82 51.43 538.35 54.89 534.08 54.89C529.82 54.89 526.35 51.43 526.35 47.16C526.35 42.89 529.82 39.42 534.08 39.42C538.35 39.42 541.82 42.89 541.82 47.16Z" id="a3NhmTC4Ra"></path><path d="M568.15 31.69C568.15 35.95 564.68 39.42 560.41 39.42C556.14 39.42 552.68 35.95 552.68 31.69C552.68 27.42 556.14 23.95 560.41 23.95C564.68 23.95 568.15 27.42 568.15 31.69Z" id="a6exRaDVUH"></path><path d="M592.21 47.16C592.21 51.43 588.75 54.89 584.48 54.89C580.21 54.89 576.74 51.43 576.74 47.16C576.74 42.89 580.21 39.42 584.48 39.42C588.75 39.42 592.21 42.89 592.21 47.16Z" id="jB3RiLUmU"></path><path d="M173.65 233.52L198.97 233.52L198.97 281.34L173.65 281.34L173.65 233.52Z" id="a2L02W2g"></path><path d="M220.77 203.75C220.77 208.02 217.3 211.49 213.03 211.49C208.76 211.49 205.29 208.02 205.29 203.75C205.29 199.48 208.76 196.02 213.03 196.02C217.3 196.02 220.77 199.48 220.77 203.75Z" id="a1ZxoijYaM"></path><path d="M236.94 220.44C236.94 247.6 216.36 242.24 188.42 242.24C160.47 242.24 135.68 247.6 135.68 220.44C135.68 193.27 158.36 171.21 186.31 171.21C214.25 171.21 236.94 193.27 236.94 220.44Z" id="a18fNE9P6u"></path><path d="M194.69 233.8C191.83 236.96 186.93 237.2 183.77 234.33C180.61 231.46 180.37 226.57 183.24 223.4C186.11 220.24 191 220 194.16 222.87C197.33 225.74 197.56 230.64 194.69 233.8Z" id="f8zS3Er1VA"></path><path d="M223.03 227.33C223.03 231.6 219.56 235.07 215.29 235.07C211.03 235.07 207.56 231.6 207.56 227.33C207.56 223.06 211.03 219.6 215.29 219.6C219.56 219.6 223.03 223.06 223.03 227.33Z" id="a2IaRaBvor"></path><path d="M164.75 225.79C164.75 230.06 161.28 233.52 157.01 233.52C152.74 233.52 149.28 230.06 149.28 225.79C149.28 221.52 152.74 218.05 157.01 218.05C161.28 218.05 164.75 221.52 164.75 225.79Z" id="fr94PyNLE"></path><path d="M170.37 199.2C170.37 203.47 166.91 206.94 162.64 206.94C158.37 206.94 154.9 203.47 154.9 199.2C154.9 194.93 158.37 191.47 162.64 191.47C166.91 191.47 170.37 194.93 170.37 199.2Z" id="aulngPNoF"></path><path d="M196.7 183.73C196.7 188 193.24 191.47 188.97 191.47C184.7 191.47 181.23 188 181.23 183.73C181.23 179.46 184.7 176 188.97 176C193.24 176 196.7 179.46 196.7 183.73Z" id="b2djhgcPzO"></path><path d="M220.77 199.2C220.77 203.47 217.3 206.94 213.03 206.94C208.76 206.94 205.29 203.47 205.29 199.2C205.29 194.93 208.76 191.47 213.03 191.47C217.3 191.47 220.77 194.93 220.77 199.2Z" id="ajteRRl5P"></path><path d="M438.21 233.52L463.53 233.52L463.53 281.34L438.21 281.34L438.21 233.52Z" id="b6ggqM1z57"></path><path d="M485.33 203.75C485.33 208.02 481.86 211.49 477.59 211.49C473.32 211.49 469.86 208.02 469.86 203.75C469.86 199.48 473.32 196.02 477.59 196.02C481.86 196.02 485.33 199.48 485.33 203.75Z" id="ccSQXf86G"></path><path d="M501.5 220.44C501.5 247.6 480.92 242.24 452.98 242.24C425.03 242.24 400.24 247.6 400.24 220.44C400.24 193.27 422.92 171.21 450.87 171.21C478.81 171.21 501.5 193.27 501.5 220.44Z" id="a9UU40rRY"></path><path d="M459.26 233.8C456.39 236.96 451.49 237.2 448.33 234.33C445.17 231.46 444.93 226.57 447.8 223.4C450.67 220.24 455.56 220 458.72 222.87C461.89 225.74 462.12 230.64 459.26 233.8Z" id="c4reB6nvaH"></path><path d="M487.59 227.33C487.59 231.6 484.12 235.07 479.86 235.07C475.59 235.07 472.12 231.6 472.12 227.33C472.12 223.06 475.59 219.6 479.86 219.6C484.12 219.6 487.59 223.06 487.59 227.33Z" id="a2x10AlXnY"></path><path d="M429.31 225.79C429.31 230.06 425.84 233.52 421.57 233.52C417.3 233.52 413.84 230.06 413.84 225.79C413.84 221.52 417.3 218.05 421.57 218.05C425.84 218.05 429.31 221.52 429.31 225.79Z" id="apePF7uTN"></path><path d="M434.93 199.2C434.93 203.47 431.47 206.94 427.2 206.94C422.93 206.94 419.46 203.47 419.46 199.2C419.46 194.93 422.93 191.47 427.2 191.47C431.47 191.47 434.93 194.93 434.93 199.2Z" id="bcC97XLas"></path><path d="M461.26 183.73C461.26 188 457.8 191.47 453.53 191.47C449.26 191.47 445.79 188 445.79 183.73C445.79 179.46 449.26 176 453.53 176C457.8 176 461.26 179.46 461.26 183.73Z" id="f3Yk4jbq0"></path><path d="M485.33 199.2C485.33 203.47 481.86 206.94 477.59 206.94C473.32 206.94 469.86 203.47 469.86 199.2C469.86 194.93 473.32 191.47 477.59 191.47C481.86 191.47 485.33 194.93 485.33 199.2Z" id="b8oskuKIU"></path><path d="M58.87 382.31L84.19 382.31L84.19 430.13L58.87 430.13L58.87 382.31Z" id="b1u1kK2mBp"></path><path d="M105.99 352.54C105.99 356.81 102.52 360.28 98.25 360.28C93.98 360.28 90.52 356.81 90.52 352.54C90.52 348.27 93.98 344.81 98.25 344.81C102.52 344.81 105.99 348.27 105.99 352.54Z" id="c3dlNCM7NG"></path><path d="M122.16 369.22C122.16 396.39 101.58 391.02 73.64 391.02C45.7 391.02 20.9 396.39 20.9 369.22C20.9 342.06 43.59 320 71.53 320C99.47 320 122.16 342.06 122.16 369.22Z" id="e4Cp46CMI"></path><path d="M79.92 382.59C77.05 385.75 72.15 385.99 68.99 383.12C65.83 380.25 65.59 375.35 68.46 372.19C71.33 369.03 76.22 368.79 79.39 371.66C82.55 374.53 82.79 379.43 79.92 382.59Z" id="e2elFKwRYn"></path><path d="M108.25 376.12C108.25 380.39 104.79 383.86 100.52 383.86C96.25 383.86 92.78 380.39 92.78 376.12C92.78 371.85 96.25 368.38 100.52 368.38C104.79 368.38 108.25 371.85 108.25 376.12Z" id="g2kH5dmbb5"></path><path d="M49.97 374.58C49.97 378.85 46.5 382.31 42.23 382.31C37.96 382.31 34.5 378.85 34.5 374.58C34.5 370.31 37.96 366.84 42.23 366.84C46.5 366.84 49.97 370.31 49.97 374.58Z" id="bvxn5ahwH"></path><path d="M55.59 347.99C55.59 352.26 52.13 355.73 47.86 355.73C43.59 355.73 40.12 352.26 40.12 347.99C40.12 343.72 43.59 340.26 47.86 340.26C52.13 340.26 55.59 343.72 55.59 347.99Z" id="a14tiEZ1yX"></path><path d="M81.92 332.52C81.92 336.79 78.46 340.26 74.19 340.26C69.92 340.26 66.45 336.79 66.45 332.52C66.45 328.25 69.92 324.79 74.19 324.79C78.46 324.79 81.92 328.25 81.92 332.52Z" id="etLTeyjA8"></path><path d="M105.99 347.99C105.99 352.26 102.52 355.73 98.25 355.73C93.98 355.73 90.52 352.26 90.52 347.99C90.52 343.72 93.98 340.26 98.25 340.26C102.52 340.26 105.99 343.72 105.99 347.99Z" id="c8W763RmG"></path><path d="M303.74 382.31L329.06 382.31L329.06 430.13L303.74 430.13L303.74 382.31Z" id="c1j6wFA46Z"></path><path d="M350.86 352.54C350.86 356.81 347.39 360.28 343.12 360.28C338.85 360.28 335.39 356.81 335.39 352.54C335.39 348.27 338.85 344.81 343.12 344.81C347.39 344.81 350.86 348.27 350.86 352.54Z" id="aifmx18E8"></path><path d="M367.03 369.22C367.03 396.39 346.45 391.02 318.51 391.02C290.57 391.02 265.77 396.39 265.77 369.22C265.77 342.06 288.46 320 316.4 320C344.35 320 367.03 342.06 367.03 369.22Z" id="g2mllhum7G"></path><path d="M324.79 382.59C321.92 385.75 317.02 385.99 313.86 383.12C310.7 380.25 310.46 375.35 313.33 372.19C316.2 369.03 321.09 368.79 324.26 371.66C327.42 374.53 327.66 379.43 324.79 382.59Z" id="fm8YSzARV"></path><path d="M353.12 376.12C353.12 380.39 349.66 383.86 345.39 383.86C341.12 383.86 337.65 380.39 337.65 376.12C337.65 371.85 341.12 368.38 345.39 368.38C349.66 368.38 353.12 371.85 353.12 376.12Z" id="c18iHUkdgo"></path><path d="M294.84 374.58C294.84 378.85 291.37 382.31 287.1 382.31C282.84 382.31 279.37 378.85 279.37 374.58C279.37 370.31 282.84 366.84 287.1 366.84C291.37 366.84 294.84 370.31 294.84 374.58Z" id="a3pffzeOhS"></path><path d="M300.47 347.99C300.47 352.26 297 355.73 292.73 355.73C288.46 355.73 284.99 352.26 284.99 347.99C284.99 343.72 288.46 340.26 292.73 340.26C297 340.26 300.47 343.72 300.47 347.99Z" id="c2YyKZjb8q"></path><path d="M326.79 332.52C326.79 336.79 323.33 340.26 319.06 340.26C314.79 340.26 311.32 336.79 311.32 332.52C311.32 328.25 314.79 324.79 319.06 324.79C323.33 324.79 326.79 328.25 326.79 332.52Z" id="d2SbbHWMH"></path><path d="M350.86 347.99C350.86 352.26 347.39 355.73 343.12 355.73C338.85 355.73 335.39 352.26 335.39 347.99C335.39 343.72 338.85 340.26 343.12 340.26C347.39 340.26 350.86 343.72 350.86 347.99Z" id="fhVNaRjRt"></path><path d="M545.1 382.31L570.41 382.31L570.41 430.13L545.1 430.13L545.1 382.31Z" id="d265vFi5bM"></path><path d="M592.21 352.54C592.21 356.81 588.75 360.28 584.48 360.28C580.21 360.28 576.74 356.81 576.74 352.54C576.74 348.27 580.21 344.81 584.48 344.81C588.75 344.81 592.21 348.27 592.21 352.54Z" id="cod7AkkW9"></path><path d="M608.39 369.22C608.39 396.39 587.81 391.02 559.87 391.02C531.92 391.02 507.13 396.39 507.13 369.22C507.13 342.06 529.81 320 557.76 320C585.7 320 608.39 342.06 608.39 369.22Z" id="cbBpCxCzqb"></path><path d="M566.14 382.59C563.27 385.75 558.38 385.99 555.22 383.12C552.05 380.25 551.82 375.35 554.68 372.19C557.55 369.03 562.45 368.79 565.61 371.66C568.77 374.53 569.01 379.43 566.14 382.59Z" id="aHPKx6e4g"></path><path d="M594.48 376.12C594.48 380.39 591.01 383.86 586.74 383.86C582.47 383.86 579.01 380.39 579.01 376.12C579.01 371.85 582.47 368.38 586.74 368.38C591.01 368.38 594.48 371.85 594.48 376.12Z" id="c1xK3obAWo"></path><path d="M536.19 374.58C536.19 378.85 532.73 382.31 528.46 382.31C524.19 382.31 520.72 378.85 520.72 374.58C520.72 370.31 524.19 366.84 528.46 366.84C532.73 366.84 536.19 370.31 536.19 374.58Z" id="g3LRYfmRss"></path><path d="M541.82 347.99C541.82 352.26 538.35 355.73 534.08 355.73C529.82 355.73 526.35 352.26 526.35 347.99C526.35 343.72 529.82 340.26 534.08 340.26C538.35 340.26 541.82 343.72 541.82 347.99Z" id="aiIGKLXlR"></path><path d="M568.15 332.52C568.15 336.79 564.68 340.26 560.41 340.26C556.14 340.26 552.68 336.79 552.68 332.52C552.68 328.25 556.14 324.79 560.41 324.79C564.68 324.79 568.15 328.25 568.15 332.52Z" id="gUA4XuaWr"></path><path d="M592.21 347.99C592.21 352.26 588.75 355.73 584.48 355.73C580.21 355.73 576.74 352.26 576.74 347.99C576.74 343.72 580.21 340.26 584.48 340.26C588.75 340.26 592.21 343.72 592.21 347.99Z" id="bm9knD4ET"></path><path d="M173.65 537.38L198.97 537.38L198.97 585.2L173.65 585.2L173.65 537.38Z" id="bh4HGNb1K"></path><path d="M220.77 507.61C220.77 511.88 217.3 515.34 213.03 515.34C208.76 515.34 205.29 511.88 205.29 507.61C205.29 503.34 208.76 499.87 213.03 499.87C217.3 499.87 220.77 503.34 220.77 507.61Z" id="aqEC0UgnK"></path><path d="M236.94 524.29C236.94 551.46 216.36 546.09 188.42 546.09C160.47 546.09 135.68 551.46 135.68 524.29C135.68 497.13 158.36 475.07 186.31 475.07C214.25 475.07 236.94 497.13 236.94 524.29Z" id="a4pDOu1OD"></path><path d="M194.69 537.66C191.83 540.82 186.93 541.06 183.77 538.19C180.61 535.32 180.37 530.42 183.24 527.26C186.11 524.1 191 523.86 194.16 526.73C197.33 529.6 197.56 534.5 194.69 537.66Z" id="h3tCq9LRsC"></path><path d="M223.03 531.19C223.03 535.46 219.56 538.92 215.29 538.92C211.03 538.92 207.56 535.46 207.56 531.19C207.56 526.92 211.03 523.45 215.29 523.45C219.56 523.45 223.03 526.92 223.03 531.19Z" id="b1cgUC8CoM"></path><path d="M164.75 529.65C164.75 533.92 161.28 537.38 157.01 537.38C152.74 537.38 149.28 533.92 149.28 529.65C149.28 525.38 152.74 521.91 157.01 521.91C161.28 521.91 164.75 525.38 164.75 529.65Z" id="a14gbJoA2M"></path><path d="M170.37 503.06C170.37 507.33 166.91 510.8 162.64 510.8C158.37 510.8 154.9 507.33 154.9 503.06C154.9 498.79 158.37 495.33 162.64 495.33C166.91 495.33 170.37 498.79 170.37 503.06Z" id="d70BeBBnq"></path><path d="M196.7 487.59C196.7 491.86 193.24 495.33 188.97 495.33C184.7 495.33 181.23 491.86 181.23 487.59C181.23 483.32 184.7 479.86 188.97 479.86C193.24 479.86 196.7 483.32 196.7 487.59Z" id="c16h2SRYFW"></path><path d="M220.77 503.06C220.77 507.33 217.3 510.8 213.03 510.8C208.76 510.8 205.29 507.33 205.29 503.06C205.29 498.79 208.76 495.33 213.03 495.33C217.3 495.33 220.77 498.79 220.77 503.06Z" id="a2HxLOibNi"></path><path d="M438.21 537.38L463.53 537.38L463.53 585.2L438.21 585.2L438.21 537.38Z" id="a1kT0qeHRA"></path><path d="M485.33 507.61C485.33 511.88 481.86 515.34 477.59 515.34C473.32 515.34 469.86 511.88 469.86 507.61C469.86 503.34 473.32 499.87 477.59 499.87C481.86 499.87 485.33 503.34 485.33 507.61Z" id="d18lDGpb3Z"></path><path d="M501.5 524.29C501.5 551.46 480.92 546.09 452.98 546.09C425.03 546.09 400.24 551.46 400.24 524.29C400.24 497.13 422.92 475.07 450.87 475.07C478.81 475.07 501.5 497.13 501.5 524.29Z" id="cc9BwhRMl"></path><path d="M459.26 537.66C456.39 540.82 451.49 541.06 448.33 538.19C445.17 535.32 444.93 530.42 447.8 527.26C450.67 524.1 455.56 523.86 458.72 526.73C461.89 529.6 462.12 534.5 459.26 537.66Z" id="a4aMApAydl"></path><path d="M487.59 531.19C487.59 535.46 484.12 538.92 479.86 538.92C475.59 538.92 472.12 535.46 472.12 531.19C472.12 526.92 475.59 523.45 479.86 523.45C484.12 523.45 487.59 526.92 487.59 531.19Z" id="bkK4IsS2P"></path><path d="M429.31 529.65C429.31 533.92 425.84 537.38 421.57 537.38C417.3 537.38 413.84 533.92 413.84 529.65C413.84 525.38 417.3 521.91 421.57 521.91C425.84 521.91 429.31 525.38 429.31 529.65Z" id="c1lPB7eGTz"></path><path d="M434.93 503.06C434.93 507.33 431.47 510.8 427.2 510.8C422.93 510.8 419.46 507.33 419.46 503.06C419.46 498.79 422.93 495.33 427.2 495.33C431.47 495.33 434.93 498.79 434.93 503.06Z" id="b8u5WJf7i"></path><path d="M461.26 487.59C461.26 491.86 457.8 495.33 453.53 495.33C449.26 495.33 445.79 491.86 445.79 487.59C445.79 483.32 449.26 479.86 453.53 479.86C457.8 479.86 461.26 483.32 461.26 487.59Z" id="aH7TPTHk"></path><path d="M485.33 503.06C485.33 507.33 481.86 510.8 477.59 510.8C473.32 510.8 469.86 507.33 469.86 503.06C469.86 498.79 473.32 495.33 477.59 495.33C481.86 495.33 485.33 498.79 485.33 503.06Z" id="o64kBuyr8"></path><path d="M205.84 48.87C205.84 59.92 196.95 68.89 186 68.89C175.05 68.89 166.15 59.92 166.15 48.87C166.15 37.82 175.05 28.85 186 28.85C196.95 28.85 205.84 37.82 205.84 48.87Z" id="fjNhY7W7x"></path><path d="M199.36 65.33C199.36 76.38 190.47 85.35 179.51 85.35C168.56 85.35 159.67 76.38 159.67 65.33C159.67 54.28 168.56 45.31 179.51 45.31C190.47 45.31 199.36 54.28 199.36 65.33Z" id="b1ThLCU01"></path><path d="M201.47 84.22C201.47 95.27 192.58 104.24 181.62 104.24C170.67 104.24 161.78 95.27 161.78 84.22C161.78 73.17 170.67 64.2 181.62 64.2C192.58 64.2 201.47 73.17 201.47 84.22Z" id="c3ZMUZUyZq"></path><path d="M210.37 104.24C210.37 115.29 201.48 124.26 190.53 124.26C179.57 124.26 170.68 115.29 170.68 104.24C170.68 93.19 179.57 84.22 190.53 84.22C201.48 84.22 210.37 93.19 210.37 104.24Z" id="dhqUppvvc"></path><path d="M219.2 85.35C219.2 96.4 210.31 105.37 199.36 105.37C188.41 105.37 179.51 96.4 179.51 85.35C179.51 74.3 188.41 65.33 199.36 65.33C210.31 65.33 219.2 74.3 219.2 85.35Z" id="d1Fk0UPxr0"></path><path d="M223.03 65.33C223.03 76.38 214.14 85.35 203.19 85.35C192.23 85.35 183.34 76.38 183.34 65.33C183.34 54.28 192.23 45.31 203.19 45.31C214.14 45.31 223.03 54.28 223.03 65.33Z" id="e7hcTNThu"></path><path d="M334.49 196.02C334.49 207.07 325.6 216.04 314.65 216.04C303.7 216.04 294.8 207.07 294.8 196.02C294.8 184.97 303.7 176 314.65 176C325.6 176 334.49 184.97 334.49 196.02Z" id="d3KKwGx4w5"></path><path d="M328.01 212.48C328.01 223.53 319.12 232.5 308.16 232.5C297.21 232.5 288.32 223.53 288.32 212.48C288.32 201.43 297.21 192.46 308.16 192.46C319.12 192.46 328.01 201.43 328.01 212.48Z" id="bhqTMvOxA"></path><path d="M330.12 231.37C330.12 242.42 321.23 251.39 310.27 251.39C299.32 251.39 290.43 242.42 290.43 231.37C290.43 220.32 299.32 211.35 310.27 211.35C321.23 211.35 330.12 220.32 330.12 231.37Z" id="a5YyEYOBuS"></path><path d="M339.02 251.39C339.02 262.44 330.13 271.41 319.18 271.41C308.23 271.41 299.33 262.44 299.33 251.39C299.33 240.34 308.23 231.37 319.18 231.37C330.13 231.37 339.02 240.34 339.02 251.39Z" id="a2qqAa5wcB"></path><path d="M347.85 232.5C347.85 243.55 338.96 252.52 328.01 252.52C317.06 252.52 308.16 243.55 308.16 232.5C308.16 221.45 317.06 212.48 328.01 212.48C338.96 212.48 347.85 221.45 347.85 232.5Z" id="c8DBMpZQX"></path><path d="M351.68 212.48C351.68 223.53 342.79 232.5 331.84 232.5C320.88 232.5 311.99 223.53 311.99 212.48C311.99 201.43 320.88 192.46 331.84 192.46C342.79 192.46 351.68 201.43 351.68 212.48Z" id="j76JG6U5u"></path><path d="M86.3 196.02C86.3 207.07 77.41 216.04 66.45 216.04C55.5 216.04 46.61 207.07 46.61 196.02C46.61 184.97 55.5 176 66.45 176C77.41 176 86.3 184.97 86.3 196.02Z" id="b1pQe4s03N"></path><path d="M79.81 212.48C79.81 223.53 70.92 232.5 59.97 232.5C49.02 232.5 40.12 223.53 40.12 212.48C40.12 201.43 49.02 192.46 59.97 192.46C70.92 192.46 79.81 201.43 79.81 212.48Z" id="b6bOXnVSK"></path><path d="M81.92 231.37C81.92 242.42 73.03 251.39 62.08 251.39C51.13 251.39 42.23 242.42 42.23 231.37C42.23 220.32 51.13 211.35 62.08 211.35C73.03 211.35 81.92 220.32 81.92 231.37Z" id="e1FkvgRD0K"></path><path d="M90.83 251.39C90.83 262.44 81.94 271.41 70.98 271.41C60.03 271.41 51.14 262.44 51.14 251.39C51.14 240.34 60.03 231.37 70.98 231.37C81.94 231.37 90.83 240.34 90.83 251.39Z" id="frHX2IMh"></path><path d="M99.66 232.5C99.66 243.55 90.77 252.52 79.81 252.52C68.86 252.52 59.97 243.55 59.97 232.5C59.97 221.45 68.86 212.48 79.81 212.48C90.77 212.48 99.66 221.45 99.66 232.5Z" id="aelTHX4s1"></path><path d="M103.49 212.48C103.49 223.53 94.59 232.5 83.64 232.5C72.69 232.5 63.8 223.53 63.8 212.48C63.8 201.43 72.69 192.46 83.64 192.46C94.59 192.46 103.49 201.43 103.49 212.48Z" id="bWyHXS1VW"></path><path d="M460.01 48.87C460.01 59.92 451.12 68.89 440.17 68.89C429.21 68.89 420.32 59.92 420.32 48.87C420.32 37.82 429.21 28.85 440.17 28.85C451.12 28.85 460.01 37.82 460.01 48.87Z" id="ekfOacUAC"></path><path d="M453.53 65.33C453.53 76.38 444.63 85.35 433.68 85.35C422.73 85.35 413.84 76.38 413.84 65.33C413.84 54.28 422.73 45.31 433.68 45.31C444.63 45.31 453.53 54.28 453.53 65.33Z" id="jlgGps9OT"></path><path d="M455.64 84.22C455.64 95.27 446.74 104.24 435.79 104.24C424.84 104.24 415.95 95.27 415.95 84.22C415.95 73.17 424.84 64.2 435.79 64.2C446.74 64.2 455.64 73.17 455.64 84.22Z" id="a3EmfZecog"></path><path d="M464.54 104.24C464.54 115.29 455.65 124.26 444.69 124.26C433.74 124.26 424.85 115.29 424.85 104.24C424.85 93.19 433.74 84.22 444.69 84.22C455.65 84.22 464.54 93.19 464.54 104.24Z" id="cfa5ryhfZ"></path><path d="M473.37 85.35C473.37 96.4 464.48 105.37 453.53 105.37C442.57 105.37 433.68 96.4 433.68 85.35C433.68 74.3 442.57 65.33 453.53 65.33C464.48 65.33 473.37 74.3 473.37 85.35Z" id="afHep9Wbj"></path><path d="M477.2 65.33C477.2 76.38 468.31 85.35 457.35 85.35C446.4 85.35 437.51 76.38 437.51 65.33C437.51 54.28 446.4 45.31 457.35 45.31C468.31 45.31 477.2 54.28 477.2 65.33Z" id="c2YohaK3L"></path><path d="M591.2 196.02C591.2 207.07 582.31 216.04 571.35 216.04C560.4 216.04 551.51 207.07 551.51 196.02C551.51 184.97 560.4 176 571.35 176C582.31 176 591.2 184.97 591.2 196.02Z" id="aOZab7fk0"></path><path d="M584.72 212.48C584.72 223.53 575.82 232.5 564.87 232.5C553.92 232.5 545.03 223.53 545.03 212.48C545.03 201.43 553.92 192.46 564.87 192.46C575.82 192.46 584.72 201.43 584.72 212.48Z" id="d8zVNSZFS"></path><path d="M586.83 231.37C586.83 242.42 577.93 251.39 566.98 251.39C556.03 251.39 547.14 242.42 547.14 231.37C547.14 220.32 556.03 211.35 566.98 211.35C577.93 211.35 586.83 220.32 586.83 231.37Z" id="e4h884iF26"></path><path d="M595.73 251.39C595.73 262.44 586.84 271.41 575.88 271.41C564.93 271.41 556.04 262.44 556.04 251.39C556.04 240.34 564.93 231.37 575.88 231.37C586.84 231.37 595.73 240.34 595.73 251.39Z" id="i58uhGOIrK"></path><path d="M604.56 232.5C604.56 243.55 595.67 252.52 584.72 252.52C573.76 252.52 564.87 243.55 564.87 232.5C564.87 221.45 573.76 212.48 584.72 212.48C595.67 212.48 604.56 221.45 604.56 232.5Z" id="auyIsISc0"></path><path d="M608.39 212.48C608.39 223.53 599.49 232.5 588.54 232.5C577.59 232.5 568.7 223.53 568.7 212.48C568.7 201.43 577.59 192.46 588.54 192.46C599.49 192.46 608.39 201.43 608.39 212.48Z" id="b5Q6VyLafX"></path><path d="M459.19 344.81C459.19 355.86 450.3 364.83 439.34 364.83C428.39 364.83 419.5 355.86 419.5 344.81C419.5 333.76 428.39 324.79 439.34 324.79C450.3 324.79 459.19 333.76 459.19 344.81Z" id="e12Tlhbsgq"></path><path d="M452.7 361.27C452.7 372.32 443.81 381.29 432.86 381.29C421.91 381.29 413.01 372.32 413.01 361.27C413.01 350.22 421.91 341.25 432.86 341.25C443.81 341.25 452.7 350.22 452.7 361.27Z" id="b2A4HIlS7"></path><path d="M454.81 380.16C454.81 391.21 445.92 400.18 434.97 400.18C424.02 400.18 415.12 391.21 415.12 380.16C415.12 369.11 424.02 360.14 434.97 360.14C445.92 360.14 454.81 369.11 454.81 380.16Z" id="abbJDpEcG"></path><path d="M463.72 400.18C463.72 411.23 454.83 420.2 443.87 420.2C432.92 420.2 424.03 411.23 424.03 400.18C424.03 389.13 432.92 380.16 443.87 380.16C454.83 380.16 463.72 389.13 463.72 400.18Z" id="beTaYIaPH"></path><path d="M472.55 381.29C472.55 392.34 463.66 401.31 452.7 401.31C441.75 401.31 432.86 392.34 432.86 381.29C432.86 370.24 441.75 361.27 452.7 361.27C463.66 361.27 472.55 370.24 472.55 381.29Z" id="adWIRZc8Q"></path><path d="M476.38 361.27C476.38 372.32 467.48 381.29 456.53 381.29C445.58 381.29 436.69 372.32 436.69 361.27C436.69 350.22 445.58 341.25 456.53 341.25C467.48 341.25 476.38 350.22 476.38 361.27Z" id="cmHuVpmoB"></path><path d="M208.81 344.81C208.81 355.86 199.92 364.83 188.97 364.83C178.01 364.83 169.12 355.86 169.12 344.81C169.12 333.76 178.01 324.79 188.97 324.79C199.92 324.79 208.81 333.76 208.81 344.81Z" id="cydpxJ2L8"></path><path d="M202.33 361.27C202.33 372.32 193.43 381.29 182.48 381.29C171.53 381.29 162.64 372.32 162.64 361.27C162.64 350.22 171.53 341.25 182.48 341.25C193.43 341.25 202.33 350.22 202.33 361.27Z" id="igdqZ56vQ"></path><path d="M204.44 380.16C204.44 391.21 195.54 400.18 184.59 400.18C173.64 400.18 164.75 391.21 164.75 380.16C164.75 369.11 173.64 360.14 184.59 360.14C195.54 360.14 204.44 369.11 204.44 380.16Z" id="b4ohz0PUoM"></path><path d="M213.34 400.18C213.34 411.23 204.45 420.2 193.5 420.2C182.54 420.2 173.65 411.23 173.65 400.18C173.65 389.13 182.54 380.16 193.5 380.16C204.45 380.16 213.34 389.13 213.34 400.18Z" id="f2u4uJ8ojK"></path><path d="M222.17 381.29C222.17 392.34 213.28 401.31 202.33 401.31C191.37 401.31 182.48 392.34 182.48 381.29C182.48 370.24 191.37 361.27 202.33 361.27C213.28 361.27 222.17 370.24 222.17 381.29Z" id="a2db3202de"></path><path d="M226 361.27C226 372.32 217.11 381.29 206.15 381.29C195.2 381.29 186.31 372.32 186.31 361.27C186.31 350.22 195.2 341.25 206.15 341.25C217.11 341.25 226 350.22 226 361.27Z" id="apWUeknOo"></path><path d="M86.3 503.5C86.3 514.55 77.41 523.52 66.45 523.52C55.5 523.52 46.61 514.55 46.61 503.5C46.61 492.45 55.5 483.48 66.45 483.48C77.41 483.48 86.3 492.45 86.3 503.5Z" id="g2iWPdr3p"></path><path d="M79.81 519.96C79.81 531.01 70.92 539.98 59.97 539.98C49.02 539.98 40.12 531.01 40.12 519.96C40.12 508.91 49.02 499.94 59.97 499.94C70.92 499.94 79.81 508.91 79.81 519.96Z" id="a1teGtMUXn"></path><path d="M81.92 538.86C81.92 549.91 73.03 558.88 62.08 558.88C51.13 558.88 42.23 549.91 42.23 538.86C42.23 527.81 51.13 518.84 62.08 518.84C73.03 518.84 81.92 527.81 81.92 538.86Z" id="buuH2RbuF"></path><path d="M90.83 558.88C90.83 569.93 81.94 578.9 70.98 578.9C60.03 578.9 51.14 569.93 51.14 558.88C51.14 547.83 60.03 538.86 70.98 538.86C81.94 538.86 90.83 547.83 90.83 558.88Z" id="a3xxJLXXSk"></path><path d="M99.66 539.98C99.66 551.03 90.77 560 79.81 560C68.86 560 59.97 551.03 59.97 539.98C59.97 528.93 68.86 519.96 79.81 519.96C90.77 519.96 99.66 528.93 99.66 539.98Z" id="b2OlsKiSvU"></path><path d="M103.49 519.96C103.49 531.01 94.59 539.98 83.64 539.98C72.69 539.98 63.8 531.01 63.8 519.96C63.8 508.91 72.69 499.94 83.64 499.94C94.59 499.94 103.49 508.91 103.49 519.96Z" id="azb6ueoT4"></path><path d="M334.49 512.3C334.49 523.35 325.6 532.32 314.65 532.32C303.7 532.32 294.8 523.35 294.8 512.3C294.8 501.25 303.7 492.28 314.65 492.28C325.6 492.28 334.49 501.25 334.49 512.3Z" id="jme0HtjJ7"></path><path d="M328.01 528.76C328.01 539.81 319.12 548.78 308.16 548.78C297.21 548.78 288.32 539.81 288.32 528.76C288.32 517.71 297.21 508.74 308.16 508.74C319.12 508.74 328.01 517.71 328.01 528.76Z" id="c20Y2MtZsI"></path><path d="M330.12 547.65C330.12 558.7 321.23 567.67 310.27 567.67C299.32 567.67 290.43 558.7 290.43 547.65C290.43 536.6 299.32 527.63 310.27 527.63C321.23 527.63 330.12 536.6 330.12 547.65Z" id="clNomphho"></path><path d="M339.02 567.67C339.02 578.72 330.13 587.69 319.18 587.69C308.23 587.69 299.33 578.72 299.33 567.67C299.33 556.62 308.23 547.65 319.18 547.65C330.13 547.65 339.02 556.62 339.02 567.67Z" id="bcrP3lIzX"></path><path d="M347.85 548.78C347.85 559.83 338.96 568.8 328.01 568.8C317.06 568.8 308.16 559.83 308.16 548.78C308.16 537.73 317.06 528.76 328.01 528.76C338.96 528.76 347.85 537.73 347.85 548.78Z" id="d2hg8a1SsG"></path><path d="M351.68 528.76C351.68 539.81 342.79 548.78 331.84 548.78C320.88 548.78 311.99 539.81 311.99 528.76C311.99 517.71 320.88 508.74 331.84 508.74C342.79 508.74 351.68 517.71 351.68 528.76Z" id="bD6QvrIt"></path><path d="M591.27 504.77C591.27 515.82 582.38 524.79 571.43 524.79C560.47 524.79 551.58 515.82 551.58 504.77C551.58 493.72 560.47 484.75 571.43 484.75C582.38 484.75 591.27 493.72 591.27 504.77Z" id="aiTFYXEJR"></path><path d="M584.79 521.23C584.79 532.28 575.9 541.25 564.94 541.25C553.99 541.25 545.1 532.28 545.1 521.23C545.1 510.18 553.99 501.21 564.94 501.21C575.9 501.21 584.79 510.18 584.79 521.23Z" id="e1D6fxzcc2"></path><path d="M586.9 540.13C586.9 551.18 578.01 560.15 567.05 560.15C556.1 560.15 547.21 551.18 547.21 540.13C547.21 529.08 556.1 520.11 567.05 520.11C578.01 520.11 586.9 529.08 586.9 540.13Z" id="h5mtMHVa1"></path><path d="M595.8 560.15C595.8 571.2 586.91 580.17 575.96 580.17C565 580.17 556.11 571.2 556.11 560.15C556.11 549.1 565 540.13 575.96 540.13C586.91 540.13 595.8 549.1 595.8 560.15Z" id="ay509SdYh"></path><path d="M604.63 541.25C604.63 552.3 595.74 561.27 584.79 561.27C573.84 561.27 564.94 552.3 564.94 541.25C564.94 530.2 573.84 521.23 584.79 521.23C595.74 521.23 604.63 530.2 604.63 541.25Z" id="b3kUyCPAx"></path><path d="M608.46 521.23C608.46 532.28 599.57 541.25 588.61 541.25C577.66 541.25 568.77 532.28 568.77 521.23C568.77 510.18 577.66 501.21 588.61 501.21C599.57 501.21 608.46 510.18 608.46 521.23Z" id="a21txIJ4q"></path></defs><g><g><g><use xlink:href="#aGAL7zJZj" opacity="1" fill="#ffc24b" fill-opacity="1"></use></g><g><use xlink:href="#i7vWJJ0t15" opacity="1" fill="#f6f6f6" fill-opacity="1"></use></g><g><use xlink:href="#bUq6dK8i0" opacity="1" fill="#ffffff" fill-opacity="1"></use></g><g><use xlink:href="#dDuM1Sqlv" opacity="1" fill="#ff2121" fill-opacity="1"></use></g><g><use xlink:href="#c996Xaso5" opacity="1" fill="#ffffff" fill-opacity="1"></use></g><g><use xlink:href="#c2xhM7rPi" opacity="1" fill="#ffffff" fill-opacity="1"></use></g><g><use xlink:href="#b2MW038pn" opacity="1" fill="#ffffff" fill-opacity="1"></use></g><g><use xlink:href="#cbq5j4FWyh" opacity="1" fill="#ffffff" fill-opacity="1"></use></g><g><use xlink:href="#b2XYdXbm1q" opacity="1" fill="#ffffff" fill-opacity="1"></use></g><g><use xlink:href="#by9cToLjM" opacity="1" fill="#ffffff" fill-opacity="1"></use></g><g><use xlink:href="#a1naBi4ei" opacity="1" fill="#f6f6f6" fill-opacity="1"></use></g><g><use xlink:href="#b8nTnlBFI" opacity="1" fill="#ffffff" fill-opacity="1"></use></g><g><use xlink:href="#gaD5hPfeG" opacity="1" fill="#ff2121" fill-opacity="1"></use></g><g><use xlink:href="#b1iIvcRjlf" opacity="1" fill="#ffffff" fill-opacity="1"></use></g><g><use xlink:href="#aQjYo0fYF" opacity="1" fill="#ffffff" fill-opacity="1"></use></g><g><use xlink:href="#b5nhkqD4B8" opacity="1" fill="#ffffff" fill-opacity="1"></use></g><g><use xlink:href="#b1n4aUCNLR" opacity="1" fill="#ffffff" fill-opacity="1"></use></g><g><use xlink:href="#d5HFDismdo" opacity="1" fill="#ffffff" fill-opacity="1"></use></g><g><use xlink:href="#a6FZLJDyWG" opacity="1" fill="#ffffff" fill-opacity="1"></use></g><g><use xlink:href="#c1NtREHkbf" opacity="1" fill="#f6f6f6" fill-opacity="1"></use></g><g><use xlink:href="#a3ySd7NIEe" opacity="1" fill="#ffffff" fill-opacity="1"></use></g><g><use xlink:href="#b6js07DWtO" opacity="1" fill="#ff2121" fill-opacity="1"></use></g><g><use xlink:href="#d3Lwh4Uy0T" opacity="1" fill="#ffffff" fill-opacity="1"></use></g><g><use xlink:href="#b1qRrodI" opacity="1" fill="#ffffff" fill-opacity="1"></use></g><g><use xlink:href="#c50FUN2oLt" opacity="1" fill="#ffffff" fill-opacity="1"></use></g><g><use xlink:href="#a3NhmTC4Ra" opacity="1" fill="#ffffff" fill-opacity="1"></use></g><g><use xlink:href="#a6exRaDVUH" opacity="1" fill="#ffffff" fill-opacity="1"></use></g><g><use xlink:href="#jB3RiLUmU" opacity="1" fill="#ffffff" fill-opacity="1"></use></g><g><use xlink:href="#a2L02W2g" opacity="1" fill="#f6f6f6" fill-opacity="1"></use></g><g><use xlink:href="#a1ZxoijYaM" opacity="1" fill="#ffffff" fill-opacity="1"></use></g><g><use xlink:href="#a18fNE9P6u" opacity="1" fill="#ff2121" fill-opacity="1"></use></g><g><use xlink:href="#f8zS3Er1VA" opacity="1" fill="#ffffff" fill-opacity="1"></use></g><g><use xlink:href="#a2IaRaBvor" opacity="1" fill="#ffffff" fill-opacity="1"></use></g><g><use xlink:href="#fr94PyNLE" opacity="1" fill="#ffffff" fill-opacity="1"></use></g><g><use xlink:href="#aulngPNoF" opacity="1" fill="#ffffff" fill-opacity="1"></use></g><g><use xlink:href="#b2djhgcPzO" opacity="1" fill="#ffffff" fill-opacity="1"></use></g><g><use xlink:href="#ajteRRl5P" opacity="1" fill="#ffffff" fill-opacity="1"></use></g><g><use xlink:href="#b6ggqM1z57" opacity="1" fill="#f6f6f6" fill-opacity="1"></use></g><g><use xlink:href="#ccSQXf86G" opacity="1" fill="#ffffff" fill-opacity="1"></use></g><g><use xlink:href="#a9UU40rRY" opacity="1" fill="#ff2121" fill-opacity="1"></use></g><g><use xlink:href="#c4reB6nvaH" opacity="1" fill="#ffffff" fill-opacity="1"></use></g><g><use xlink:href="#a2x10AlXnY" opacity="1" fill="#ffffff" fill-opacity="1"></use></g><g><use xlink:href="#apePF7uTN" opacity="1" fill="#ffffff" fill-opacity="1"></use></g><g><use xlink:href="#bcC97XLas" opacity="1" fill="#ffffff" fill-opacity="1"></use></g><g><use xlink:href="#f3Yk4jbq0" opacity="1" fill="#ffffff" fill-opacity="1"></use></g><g><use xlink:href="#b8oskuKIU" opacity="1" fill="#ffffff" fill-opacity="1"></use></g><g><use xlink:href="#b1u1kK2mBp" opacity="1" fill="#f6f6f6" fill-opacity="1"></use></g><g><use xlink:href="#c3dlNCM7NG" opacity="1" fill="#ffffff" fill-opacity="1"></use></g><g><use xlink:href="#e4Cp46CMI" opacity="1" fill="#ff2121" fill-opacity="1"></use></g><g><use xlink:href="#e2elFKwRYn" opacity="1" fill="#ffffff" fill-opacity="1"></use></g><g><use xlink:href="#g2kH5dmbb5" opacity="1" fill="#ffffff" fill-opacity="1"></use></g><g><use xlink:href="#bvxn5ahwH" opacity="1" fill="#ffffff" fill-opacity="1"></use></g><g><use xlink:href="#a14tiEZ1yX" opacity="1" fill="#ffffff" fill-opacity="1"></use></g><g><use xlink:href="#etLTeyjA8" opacity="1" fill="#ffffff" fill-opacity="1"></use></g><g><use xlink:href="#c8W763RmG" opacity="1" fill="#ffffff" fill-opacity="1"></use></g><g><use xlink:href="#c1j6wFA46Z" opacity="1" fill="#f6f6f6" fill-opacity="1"></use></g><g><use xlink:href="#aifmx18E8" opacity="1" fill="#ffffff" fill-opacity="1"></use></g><g><use xlink:href="#g2mllhum7G" opacity="1" fill="#ff2121" fill-opacity="1"></use></g><g><use xlink:href="#fm8YSzARV" opacity="1" fill="#ffffff" fill-opacity="1"></use></g><g><use xlink:href="#c18iHUkdgo" opacity="1" fill="#ffffff" fill-opacity="1"></use></g><g><use xlink:href="#a3pffzeOhS" opacity="1" fill="#ffffff" fill-opacity="1"></use></g><g><use xlink:href="#c2YyKZjb8q" opacity="1" fill="#ffffff" fill-opacity="1"></use></g><g><use xlink:href="#d2SbbHWMH" opacity="1" fill="#ffffff" fill-opacity="1"></use></g><g><use xlink:href="#fhVNaRjRt" opacity="1" fill="#ffffff" fill-opacity="1"></use></g><g><use xlink:href="#d265vFi5bM" opacity="1" fill="#f6f6f6" fill-opacity="1"></use></g><g><use xlink:href="#cod7AkkW9" opacity="1" fill="#ffffff" fill-opacity="1"></use></g><g><use xlink:href="#cbBpCxCzqb" opacity="1" fill="#ff2121" fill-opacity="1"></use></g><g><use xlink:href="#aHPKx6e4g" opacity="1" fill="#ffffff" fill-opacity="1"></use></g><g><use xlink:href="#c1xK3obAWo" opacity="1" fill="#ffffff" fill-opacity="1"></use></g><g><use xlink:href="#g3LRYfmRss" opacity="1" fill="#ffffff" fill-opacity="1"></use></g><g><use xlink:href="#aiIGKLXlR" opacity="1" fill="#ffffff" fill-opacity="1"></use></g><g><use xlink:href="#gUA4XuaWr" opacity="1" fill="#ffffff" fill-opacity="1"></use></g><g><use xlink:href="#bm9knD4ET" opacity="1" fill="#ffffff" fill-opacity="1"></use></g><g><use xlink:href="#bh4HGNb1K" opacity="1" fill="#f6f6f6" fill-opacity="1"></use></g><g><use xlink:href="#aqEC0UgnK" opacity="1" fill="#ffffff" fill-opacity="1"></use></g><g><use xlink:href="#a4pDOu1OD" opacity="1" fill="#ff2121" fill-opacity="1"></use></g><g><use xlink:href="#h3tCq9LRsC" opacity="1" fill="#ffffff" fill-opacity="1"></use></g><g><use xlink:href="#b1cgUC8CoM" opacity="1" fill="#ffffff" fill-opacity="1"></use></g><g><use xlink:href="#a14gbJoA2M" opacity="1" fill="#ffffff" fill-opacity="1"></use></g><g><use xlink:href="#d70BeBBnq" opacity="1" fill="#ffffff" fill-opacity="1"></use></g><g><use xlink:href="#c16h2SRYFW" opacity="1" fill="#ffffff" fill-opacity="1"></use></g><g><use xlink:href="#a2HxLOibNi" opacity="1" fill="#ffffff" fill-opacity="1"></use></g><g><use xlink:href="#a1kT0qeHRA" opacity="1" fill="#f6f6f6" fill-opacity="1"></use></g><g><use xlink:href="#d18lDGpb3Z" opacity="1" fill="#ffffff" fill-opacity="1"></use></g><g><use xlink:href="#cc9BwhRMl" opacity="1" fill="#ff2121" fill-opacity="1"></use></g><g><use xlink:href="#a4aMApAydl" opacity="1" fill="#ffffff" fill-opacity="1"></use></g><g><use xlink:href="#bkK4IsS2P" opacity="1" fill="#ffffff" fill-opacity="1"></use></g><g><use xlink:href="#c1lPB7eGTz" opacity="1" fill="#ffffff" fill-opacity="1"></use></g><g><use xlink:href="#b8u5WJf7i" opacity="1" fill="#ffffff" fill-opacity="1"></use></g><g><use xlink:href="#aH7TPTHk" opacity="1" fill="#ffffff" fill-opacity="1"></use></g><g><use xlink:href="#o64kBuyr8" opacity="1" fill="#ffffff" fill-opacity="1"></use></g><g><use xlink:href="#fjNhY7W7x" opacity="1" fill="#5fe000" fill-opacity="1"></use><g><use xlink:href="#fjNhY7W7x" opacity="1" fill-opacity="0" stroke="#76e41a" stroke-width="1" stroke-opacity="1"></use></g></g><g><use xlink:href="#b1ThLCU01" opacity="1" fill="#5fe000" fill-opacity="1"></use><g><use xlink:href="#b1ThLCU01" opacity="1" fill-opacity="0" stroke="#76e41a" stroke-width="1" stroke-opacity="1"></use></g></g><g><use xlink:href="#c3ZMUZUyZq" opacity="1" fill="#5fe000" fill-opacity="1"></use><g><use xlink:href="#c3ZMUZUyZq" opacity="1" fill-opacity="0" stroke="#76e41a" stroke-width="1" stroke-opacity="1"></use></g></g><g><use xlink:href="#dhqUppvvc" opacity="1" fill="#5fe000" fill-opacity="1"></use><g><use xlink:href="#dhqUppvvc" opacity="1" fill-opacity="0" stroke="#76e41a" stroke-width="1" stroke-opacity="1"></use></g></g><g><use xlink:href="#d1Fk0UPxr0" opacity="1" fill="#5fe000" fill-opacity="1"></use><g><use xlink:href="#d1Fk0UPxr0" opacity="1" fill-opacity="0" stroke="#76e41a" stroke-width="1" stroke-opacity="1"></use></g></g><g><use xlink:href="#e7hcTNThu" opacity="1" fill="#5fe000" fill-opacity="1"></use><g><use xlink:href="#e7hcTNThu" opacity="1" fill-opacity="0" stroke="#76e41a" stroke-width="1" stroke-opacity="1"></use></g></g><g><use xlink:href="#d3KKwGx4w5" opacity="1" fill="#5fe000" fill-opacity="1"></use><g><use xlink:href="#d3KKwGx4w5" opacity="1" fill-opacity="0" stroke="#76e41a" stroke-width="1" stroke-opacity="1"></use></g></g><g><use xlink:href="#bhqTMvOxA" opacity="1" fill="#5fe000" fill-opacity="1"></use><g><use xlink:href="#bhqTMvOxA" opacity="1" fill-opacity="0" stroke="#76e41a" stroke-width="1" stroke-opacity="1"></use></g></g><g><use xlink:href="#a5YyEYOBuS" opacity="1" fill="#5fe000" fill-opacity="1"></use><g><use xlink:href="#a5YyEYOBuS" opacity="1" fill-opacity="0" stroke="#76e41a" stroke-width="1" stroke-opacity="1"></use></g></g><g><use xlink:href="#a2qqAa5wcB" opacity="1" fill="#5fe000" fill-opacity="1"></use><g><use xlink:href="#a2qqAa5wcB" opacity="1" fill-opacity="0" stroke="#76e41a" stroke-width="1" stroke-opacity="1"></use></g></g><g><use xlink:href="#c8DBMpZQX" opacity="1" fill="#5fe000" fill-opacity="1"></use><g><use xlink:href="#c8DBMpZQX" opacity="1" fill-opacity="0" stroke="#76e41a" stroke-width="1" stroke-opacity="1"></use></g></g><g><use xlink:href="#j76JG6U5u" opacity="1" fill="#5fe000" fill-opacity="1"></use><g><use xlink:href="#j76JG6U5u" opacity="1" fill-opacity="0" stroke="#76e41a" stroke-width="1" stroke-opacity="1"></use></g></g><g><use xlink:href="#b1pQe4s03N" opacity="1" fill="#5fe000" fill-opacity="1"></use><g><use xlink:href="#b1pQe4s03N" opacity="1" fill-opacity="0" stroke="#76e41a" stroke-width="1" stroke-opacity="1"></use></g></g><g><use xlink:href="#b6bOXnVSK" opacity="1" fill="#5fe000" fill-opacity="1"></use><g><use xlink:href="#b6bOXnVSK" opacity="1" fill-opacity="0" stroke="#76e41a" stroke-width="1" stroke-opacity="1"></use></g></g><g><use xlink:href="#e1FkvgRD0K" opacity="1" fill="#5fe000" fill-opacity="1"></use><g><use xlink:href="#e1FkvgRD0K" opacity="1" fill-opacity="0" stroke="#76e41a" stroke-width="1" stroke-opacity="1"></use></g></g><g><use xlink:href="#frHX2IMh" opacity="1" fill="#5fe000" fill-opacity="1"></use><g><use xlink:href="#frHX2IMh" opacity="1" fill-opacity="0" stroke="#76e41a" stroke-width="1" stroke-opacity="1"></use></g></g><g><use xlink:href="#aelTHX4s1" opacity="1" fill="#5fe000" fill-opacity="1"></use><g><use xlink:href="#aelTHX4s1" opacity="1" fill-opacity="0" stroke="#76e41a" stroke-width="1" stroke-opacity="1"></use></g></g><g><use xlink:href="#bWyHXS1VW" opacity="1" fill="#5fe000" fill-opacity="1"></use><g><use xlink:href="#bWyHXS1VW" opacity="1" fill-opacity="0" stroke="#76e41a" stroke-width="1" stroke-opacity="1"></use></g></g><g><use xlink:href="#ekfOacUAC" opacity="1" fill="#5fe000" fill-opacity="1"></use><g><use xlink:href="#ekfOacUAC" opacity="1" fill-opacity="0" stroke="#76e41a" stroke-width="1" stroke-opacity="1"></use></g></g><g><use xlink:href="#jlgGps9OT" opacity="1" fill="#5fe000" fill-opacity="1"></use><g><use xlink:href="#jlgGps9OT" opacity="1" fill-opacity="0" stroke="#76e41a" stroke-width="1" stroke-opacity="1"></use></g></g><g><use xlink:href="#a3EmfZecog" opacity="1" fill="#5fe000" fill-opacity="1"></use><g><use xlink:href="#a3EmfZecog" opacity="1" fill-opacity="0" stroke="#76e41a" stroke-width="1" stroke-opacity="1"></use></g></g><g><use xlink:href="#cfa5ryhfZ" opacity="1" fill="#5fe000" fill-opacity="1"></use><g><use xlink:href="#cfa5ryhfZ" opacity="1" fill-opacity="0" stroke="#76e41a" stroke-width="1" stroke-opacity="1"></use></g></g><g><use xlink:href="#afHep9Wbj" opacity="1" fill="#5fe000" fill-opacity="1"></use><g><use xlink:href="#afHep9Wbj" opacity="1" fill-opacity="0" stroke="#76e41a" stroke-width="1" stroke-opacity="1"></use></g></g><g><use xlink:href="#c2YohaK3L" opacity="1" fill="#5fe000" fill-opacity="1"></use><g><use xlink:href="#c2YohaK3L" opacity="1" fill-opacity="0" stroke="#76e41a" stroke-width="1" stroke-opacity="1"></use></g></g><g><use xlink:href="#aOZab7fk0" opacity="1" fill="#5fe000" fill-opacity="1"></use><g><use xlink:href="#aOZab7fk0" opacity="1" fill-opacity="0" stroke="#76e41a" stroke-width="1" stroke-opacity="1"></use></g></g><g><use xlink:href="#d8zVNSZFS" opacity="1" fill="#5fe000" fill-opacity="1"></use><g><use xlink:href="#d8zVNSZFS" opacity="1" fill-opacity="0" stroke="#76e41a" stroke-width="1" stroke-opacity="1"></use></g></g><g><use xlink:href="#e4h884iF26" opacity="1" fill="#5fe000" fill-opacity="1"></use><g><use xlink:href="#e4h884iF26" opacity="1" fill-opacity="0" stroke="#76e41a" stroke-width="1" stroke-opacity="1"></use></g></g><g><use xlink:href="#i58uhGOIrK" opacity="1" fill="#5fe000" fill-opacity="1"></use><g><use xlink:href="#i58uhGOIrK" opacity="1" fill-opacity="0" stroke="#76e41a" stroke-width="1" stroke-opacity="1"></use></g></g><g><use xlink:href="#auyIsISc0" opacity="1" fill="#5fe000" fill-opacity="1"></use><g><use xlink:href="#auyIsISc0" opacity="1" fill-opacity="0" stroke="#76e41a" stroke-width="1" stroke-opacity="1"></use></g></g><g><use xlink:href="#b5Q6VyLafX" opacity="1" fill="#5fe000" fill-opacity="1"></use><g><use xlink:href="#b5Q6VyLafX" opacity="1" fill-opacity="0" stroke="#76e41a" stroke-width="1" stroke-opacity="1"></use></g></g><g><use xlink:href="#e12Tlhbsgq" opacity="1" fill="#5fe000" fill-opacity="1"></use><g><use xlink:href="#e12Tlhbsgq" opacity="1" fill-opacity="0" stroke="#76e41a" stroke-width="1" stroke-opacity="1"></use></g></g><g><use xlink:href="#b2A4HIlS7" opacity="1" fill="#5fe000" fill-opacity="1"></use><g><use xlink:href="#b2A4HIlS7" opacity="1" fill-opacity="0" stroke="#76e41a" stroke-width="1" stroke-opacity="1"></use></g></g><g><use xlink:href="#abbJDpEcG" opacity="1" fill="#5fe000" fill-opacity="1"></use><g><use xlink:href="#abbJDpEcG" opacity="1" fill-opacity="0" stroke="#76e41a" stroke-width="1" stroke-opacity="1"></use></g></g><g><use xlink:href="#beTaYIaPH" opacity="1" fill="#5fe000" fill-opacity="1"></use><g><use xlink:href="#beTaYIaPH" opacity="1" fill-opacity="0" stroke="#76e41a" stroke-width="1" stroke-opacity="1"></use></g></g><g><use xlink:href="#adWIRZc8Q" opacity="1" fill="#5fe000" fill-opacity="1"></use><g><use xlink:href="#adWIRZc8Q" opacity="1" fill-opacity="0" stroke="#76e41a" stroke-width="1" stroke-opacity="1"></use></g></g><g><use xlink:href="#cmHuVpmoB" opacity="1" fill="#5fe000" fill-opacity="1"></use><g><use xlink:href="#cmHuVpmoB" opacity="1" fill-opacity="0" stroke="#76e41a" stroke-width="1" stroke-opacity="1"></use></g></g><g><use xlink:href="#cydpxJ2L8" opacity="1" fill="#5fe000" fill-opacity="1"></use><g><use xlink:href="#cydpxJ2L8" opacity="1" fill-opacity="0" stroke="#76e41a" stroke-width="1" stroke-opacity="1"></use></g></g><g><use xlink:href="#igdqZ56vQ" opacity="1" fill="#5fe000" fill-opacity="1"></use><g><use xlink:href="#igdqZ56vQ" opacity="1" fill-opacity="0" stroke="#76e41a" stroke-width="1" stroke-opacity="1"></use></g></g><g><use xlink:href="#b4ohz0PUoM" opacity="1" fill="#5fe000" fill-opacity="1"></use><g><use xlink:href="#b4ohz0PUoM" opacity="1" fill-opacity="0" stroke="#76e41a" stroke-width="1" stroke-opacity="1"></use></g></g><g><use xlink:href="#f2u4uJ8ojK" opacity="1" fill="#5fe000" fill-opacity="1"></use><g><use xlink:href="#f2u4uJ8ojK" opacity="1" fill-opacity="0" stroke="#76e41a" stroke-width="1" stroke-opacity="1"></use></g></g><g><use xlink:href="#a2db3202de" opacity="1" fill="#5fe000" fill-opacity="1"></use><g><use xlink:href="#a2db3202de" opacity="1" fill-opacity="0" stroke="#76e41a" stroke-width="1" stroke-opacity="1"></use></g></g><g><use xlink:href="#apWUeknOo" opacity="1" fill="#5fe000" fill-opacity="1"></use><g><use xlink:href="#apWUeknOo" opacity="1" fill-opacity="0" stroke="#76e41a" stroke-width="1" stroke-opacity="1"></use></g></g><g><use xlink:href="#g2iWPdr3p" opacity="1" fill="#5fe000" fill-opacity="1"></use><g><use xlink:href="#g2iWPdr3p" opacity="1" fill-opacity="0" stroke="#76e41a" stroke-width="1" stroke-opacity="1"></use></g></g><g><use xlink:href="#a1teGtMUXn" opacity="1" fill="#5fe000" fill-opacity="1"></use><g><use xlink:href="#a1teGtMUXn" opacity="1" fill-opacity="0" stroke="#76e41a" stroke-width="1" stroke-opacity="1"></use></g></g><g><use xlink:href="#buuH2RbuF" opacity="1" fill="#5fe000" fill-opacity="1"></use><g><use xlink:href="#buuH2RbuF" opacity="1" fill-opacity="0" stroke="#76e41a" stroke-width="1" stroke-opacity="1"></use></g></g><g><use xlink:href="#a3xxJLXXSk" opacity="1" fill="#5fe000" fill-opacity="1"></use><g><use xlink:href="#a3xxJLXXSk" opacity="1" fill-opacity="0" stroke="#76e41a" stroke-width="1" stroke-opacity="1"></use></g></g><g><use xlink:href="#b2OlsKiSvU" opacity="1" fill="#5fe000" fill-opacity="1"></use><g><use xlink:href="#b2OlsKiSvU" opacity="1" fill-opacity="0" stroke="#76e41a" stroke-width="1" stroke-opacity="1"></use></g></g><g><use xlink:href="#azb6ueoT4" opacity="1" fill="#5fe000" fill-opacity="1"></use><g><use xlink:href="#azb6ueoT4" opacity="1" fill-opacity="0" stroke="#76e41a" stroke-width="1" stroke-opacity="1"></use></g></g><g><use xlink:href="#jme0HtjJ7" opacity="1" fill="#5fe000" fill-opacity="1"></use><g><use xlink:href="#jme0HtjJ7" opacity="1" fill-opacity="0" stroke="#76e41a" stroke-width="1" stroke-opacity="1"></use></g></g><g><use xlink:href="#c20Y2MtZsI" opacity="1" fill="#5fe000" fill-opacity="1"></use><g><use xlink:href="#c20Y2MtZsI" opacity="1" fill-opacity="0" stroke="#76e41a" stroke-width="1" stroke-opacity="1"></use></g></g><g><use xlink:href="#clNomphho" opacity="1" fill="#5fe000" fill-opacity="1"></use><g><use xlink:href="#clNomphho" opacity="1" fill-opacity="0" stroke="#76e41a" stroke-width="1" stroke-opacity="1"></use></g></g><g><use xlink:href="#bcrP3lIzX" opacity="1" fill="#5fe000" fill-opacity="1"></use><g><use xlink:href="#bcrP3lIzX" opacity="1" fill-opacity="0" stroke="#76e41a" stroke-width="1" stroke-opacity="1"></use></g></g><g><use xlink:href="#d2hg8a1SsG" opacity="1" fill="#5fe000" fill-opacity="1"></use><g><use xlink:href="#d2hg8a1SsG" opacity="1" fill-opacity="0" stroke="#76e41a" stroke-width="1" stroke-opacity="1"></use></g></g><g><use xlink:href="#bD6QvrIt" opacity="1" fill="#5fe000" fill-opacity="1"></use><g><use xlink:href="#bD6QvrIt" opacity="1" fill-opacity="0" stroke="#76e41a" stroke-width="1" stroke-opacity="1"></use></g></g><g><use xlink:href="#aiTFYXEJR" opacity="1" fill="#5fe000" fill-opacity="1"></use><g><use xlink:href="#aiTFYXEJR" opacity="1" fill-opacity="0" stroke="#76e41a" stroke-width="1" stroke-opacity="1"></use></g></g><g><use xlink:href="#e1D6fxzcc2" opacity="1" fill="#5fe000" fill-opacity="1"></use><g><use xlink:href="#e1D6fxzcc2" opacity="1" fill-opacity="0" stroke="#76e41a" stroke-width="1" stroke-opacity="1"></use></g></g><g><use xlink:href="#h5mtMHVa1" opacity="1" fill="#5fe000" fill-opacity="1"></use><g><use xlink:href="#h5mtMHVa1" opacity="1" fill-opacity="0" stroke="#76e41a" stroke-width="1" stroke-opacity="1"></use></g></g><g><use xlink:href="#ay509SdYh" opacity="1" fill="#5fe000" fill-opacity="1"></use><g><use xlink:href="#ay509SdYh" opacity="1" fill-opacity="0" stroke="#76e41a" stroke-width="1" stroke-opacity="1"></use></g></g><g><use xlink:href="#b3kUyCPAx" opacity="1" fill="#5fe000" fill-opacity="1"></use><g><use xlink:href="#b3kUyCPAx" opacity="1" fill-opacity="0" stroke="#76e41a" stroke-width="1" stroke-opacity="1"></use></g></g><g><use xlink:href="#a21txIJ4q" opacity="1" fill="#5fe000" fill-opacity="1"></use><g><use xlink:href="#a21txIJ4q" opacity="1" fill-opacity="0" stroke="#76e41a" stroke-width="1" stroke-opacity="1"></use></g></g></g></g></svg>